HIERARCHY
ROOT root
{
	OFFSET 0.000000 0.000000 0.000000
	CHANNELS 6 Xposition Yposition Zposition Zrotation Yrotation Xrotation
	JOINT lhip
	{
		OFFSET 0.058581 -0.082280 -0.017664
		CHANNELS 3 Zrotation Yrotation Xrotation
		JOINT lknee
		{
			OFFSET 0.043451 -0.386469 0.008037
			CHANNELS 3 Zrotation Yrotation Xrotation
			JOINT lankle
			{
				OFFSET -0.014790 -0.426874 -0.037428
				CHANNELS 3 Zrotation Yrotation Xrotation
				JOINT ltoe
				{
					OFFSET 0.041054 -0.060286 0.122042
					CHANNELS 3 Zrotation Yrotation Xrotation
					End Site
					{
						OFFSET 0.000000 0.000000 0.000000
					}
				}
			}
		}
	}
	JOINT rhip
	{
		OFFSET -0.060310 -0.090513 -0.013543
		CHANNELS 3 Zrotation Yrotation Xrotation
		JOINT rknee
		{
			OFFSET -0.043257 -0.383688 -0.004843
			CHANNELS 3 Zrotation Yrotation Xrotation
			JOINT rankle
			{
				OFFSET 0.019056 -0.420046 -0.034562
				CHANNELS 3 Zrotation Yrotation Xrotation
				JOINT rtoe
				{
					OFFSET -0.034840 -0.062106 0.130323
					CHANNELS 3 Zrotation Yrotation Xrotation
					End Site
					{
						OFFSET 0.000000 0.000000 0.000000
					}
				}
			}
		}
	}
	JOINT lowerback
	{
		OFFSET 0.004439 0.124404 -0.038385
		CHANNELS 3 Zrotation Yrotation Xrotation
		JOINT upperback
		{
			OFFSET 0.004488 0.137956 0.026820
			CHANNELS 3 Zrotation Yrotation Xrotation
			JOINT chest
			{
				OFFSET -0.002265 0.056032 0.002855
				CHANNELS 3 Zrotation Yrotation Xrotation
				JOINT lowerneck
				{
					OFFSET -0.013390 0.211636 -0.033468
					CHANNELS 3 Zrotation Yrotation Xrotation
					JOINT upperneck
					{
						OFFSET 0.010113 0.088937 0.050410
						CHANNELS 3 Zrotation Yrotation Xrotation
						End Site
						{
							OFFSET 0.000000 0.000000 0.000000
						}
					}
				}
				JOINT lclavicle
				{
					OFFSET 0.071702 0.114000 -0.018898
					CHANNELS 3 Zrotation Yrotation Xrotation
					JOINT lshoulder
					{
						OFFSET 0.122921 0.045205 -0.019046
						CHANNELS 3 Zrotation Yrotation Xrotation
						JOINT lelbow
						{
							OFFSET 0.255332 -0.015649 -0.022946
							CHANNELS 3 Zrotation Yrotation Xrotation
							JOINT lwrist
							{
								OFFSET 0.265709 0.012698 -0.007375
								CHANNELS 3 Zrotation Yrotation Xrotation
								End Site
								{
									OFFSET 0.000000 0.000000 0.000000
								}
							}
						}
					}
				}
				JOINT rclavicle
				{
					OFFSET -0.082954 0.112472 -0.023707
					CHANNELS 3 Zrotation Yrotation Xrotation
					JOINT rshoulder
					{
						OFFSET -0.113228 0.046853 -0.008472
						CHANNELS 3 Zrotation Yrotation Xrotation
						JOINT relbow
						{
							OFFSET -0.260127 -0.014369 -0.031269
							CHANNELS 3 Zrotation Yrotation Xrotation
							JOINT rwrist
							{
								OFFSET -0.269108 0.006794 -0.006027
								CHANNELS 3 Zrotation Yrotation Xrotation
								End Site
								{
									OFFSET 0.000000 0.000000 0.000000
								}
							}
						}
					}
				}
			}
		}
	}
}
MOTION
Frames: 13
Frame Time: 0.033333
0.978095 0.257518 0.974312 85.065426 -2.936542 82.811985 -6.330637 -5.033747 -10.834286 -5.616708 -5.699489 21.083991 10.613017 10.089589 -7.600485 0.000000 -0.000000 0.000000 -3.094219 -2.564838 1.375927 2.171783 4.493534 58.452030 4.993222 -8.370075 14.009769 0.000000 -0.000000 0.000000 -0.835581 4.018549 10.265542 0.708302 1.542716 -3.221176 -1.893289 0.484122 3.029724 2.956755 1.898188 -6.847431 -4.429942 1.597945 12.229177 -30.984516 10.261016 -1.743557 -52.239358 -0.599274 7.663582 6.805188 -24.861609 7.097822 -5.357811 -0.560011 -3.307592 32.040901 -1.545852 -3.516654 49.710281 9.581027 16.017463 -12.436811 23.121498 -12.445619 5.748144 2.295119 -3.628372 
1.022700 0.257708 0.980329 86.067187 -2.503480 81.614966 -6.892570 -3.117093 -5.638998 -5.183043 -8.195167 19.415436 10.475351 9.925618 -9.297572 0.000000 -0.000000 0.000000 -2.361375 -2.245777 -2.484806 -0.037898 1.768802 62.019864 4.263357 -10.323958 5.581324 0.000000 -0.000000 0.000000 -0.790311 2.261487 11.390220 0.876635 1.711947 -3.374336 -1.775322 0.016934 3.357024 3.319948 3.075663 -6.317716 -4.936767 1.277747 12.139102 -30.439395 9.221887 -1.538589 -51.870899 -1.524722 7.430971 7.081858 -25.711641 7.381639 -4.921827 -0.423264 -2.483841 32.438628 -0.917054 -3.600134 49.966784 8.679553 15.690473 -11.987634 21.507926 -11.730686 5.895277 2.079813 -2.686248 
1.063701 0.258060 0.986458 87.293126 -2.020868 81.010918 -6.718243 -1.817730 -0.982204 -5.113522 -10.317551 16.915510 10.300394 9.821455 -10.252060 0.000000 -0.000000 0.000000 -1.737000 -1.761724 -6.841826 -0.195362 -0.340972 62.830797 3.634244 -11.182669 3.648769 0.000000 -0.000000 0.000000 -0.788926 0.532417 11.844662 1.124813 1.513517 -2.927699 -1.603535 -0.593808 3.290953 3.224559 3.571580 -5.715573 -5.126199 1.206293 11.822457 -29.806195 7.921653 -0.800097 -51.628403 -2.930639 7.388127 7.598627 -26.577056 6.895282 -5.305286 0.061944 -2.306609 32.460426 -0.358350 -2.951450 50.823747 8.210675 15.312629 -12.493935 20.586412 -11.649160 6.802532 1.080531 -2.239787 
1.104472 0.258005 0.991637 89.114283 -1.351362 80.499684 -6.093665 -0.203705 3.590324 -4.852123 -13.143562 14.306229 9.638320 9.485821 -11.030734 0.000000 -0.000000 0.000000 -1.314588 -1.617839 -10.632931 0.123438 -2.466156 60.673894 3.281964 -10.883915 0.230330 0.000000 -0.000000 0.000000 -0.674472 -1.234890 12.208096 1.386289 0.975471 -2.569571 -1.401759 -1.143038 3.134603 3.197979 4.358158 -5.023810 -4.931309 0.990538 11.921544 -29.206121 6.708232 -0.572897 -51.100416 -4.322340 7.373118 7.412893 -26.457935 6.379851 -5.282793 -0.035780 -2.598614 32.559919 -0.324393 -2.665966 51.362807 7.474784 14.761580 -12.269884 19.901731 -11.419433 7.210782 0.866444 -2.692947 
1.142999 0.257506 0.994370 90.569641 -0.666893 80.371889 -4.861218 1.022091 7.499392 -4.892460 -15.446744 11.755982 8.732864 9.132877 -11.472946 0.000000 -0.000000 0.000000 -0.894764 -1.217063 -13.972400 0.513235 -4.100694 55.630890 3.999642 -10.745542 -3.626842 0.000000 -0.000000 0.000000 -0.495812 -2.634699 12.880397 1.597057 0.566665 -2.667568 -1.054232 -1.784231 2.984031 2.914488 5.030945 -4.813526 -4.747185 0.541936 11.485732 -28.478804 5.772778 -0.443944 -50.690232 -5.545373 7.640918 6.996632 -27.206414 6.123913 -3.971345 0.269948 -3.608333 32.530277 -0.435868 -2.567228 51.751599 6.259225 14.571323 -12.168677 20.408349 -10.468610 7.251849 0.360357 -3.222668 
1.181345 0.256640 0.994356 91.749594 -0.215155 80.439285 -3.663405 2.735085 10.989938 -4.747688 -16.706406 9.749107 7.678386 8.602741 -12.419295 0.000000 -0.000000 0.000000 -0.800193 -0.802457 -16.473430 0.882342 -5.232818 48.112398 5.172513 -10.680517 -5.897784 0.000000 -0.000000 0.000000 -0.450489 -3.920286 13.562371 1.595131 0.341025 -2.897496 -0.738269 -2.364843 2.739934 2.973694 5.731759 -5.119436 -4.819885 -0.002826 11.540707 -28.026744 5.086180 -0.757119 -49.604971 -6.996040 7.627437 6.747942 -28.519328 6.581216 -3.664343 0.017399 -1.498685 32.744573 -0.925473 -2.701395 52.001909 5.257055 14.476208 -11.899612 21.010114 -9.951007 6.919550 0.932425 -2.545025 
1.218643 0.256142 0.991420 92.909121 -0.014629 80.833757 -2.702899 3.888229 14.041922 -4.490781 -17.505751 7.781065 6.609282 7.836522 -13.264386 0.000000 -0.000000 0.000000 -0.856756 -0.794650 -18.104897 0.467282 -6.295809 37.617187 6.436764 -10.538821 -6.813102 0.000000 -0.000000 0.000000 -0.473704 -4.858290 14.183016 1.508590 -0.072672 -3.343328 -0.316395 -2.814985 2.638937 2.804655 6.348469 -5.738279 -4.437216 -0.209126 11.643787 -27.475934 4.564048 -1.087223 -48.976406 -8.919046 7.720812 6.563875 -29.449897 6.809026 -2.963482 -1.358582 -0.366207 32.598998 -1.294455 -2.815070 52.464704 4.315318 14.521241 -11.728161 21.248036 -9.568514 6.234459 1.266601 -2.780980 
1.257642 0.255289 0.985705 93.749388 -0.033429 81.580467 -2.170826 3.705475 16.814175 -4.312683 -17.855390 5.932059 6.337484 7.617152 -14.061388 0.000000 -0.000000 0.000000 -0.699394 -1.078400 -18.829656 0.082915 -6.352756 24.935342 6.804957 -11.303233 -4.151475 0.000000 -0.000000 0.000000 -0.630459 -5.118017 13.517389 1.506344 -0.730598 -2.939408 0.158806 -3.336632 2.490398 2.300608 6.111017 -5.836314 -3.905998 -0.036498 10.983355 -26.849993 4.117623 -0.808560 -48.855494 -10.488713 7.629804 7.053052 -30.700026 6.239008 -2.815806 -1.225624 -1.193453 32.522129 -1.672990 -2.547001 52.780607 3.969631 14.605454 -12.106662 20.805154 -9.354452 6.800538 0.875966 -2.637797 
1.296612 0.254181 0.978662 94.819034 -0.447339 82.679199 -1.407776 4.554947 18.452650 -4.519519 -18.558168 5.426912 5.375781 5.954090 -15.297640 0.000000 -0.000000 0.000000 -0.574582 -2.208836 -19.120806 -0.604963 -6.585125 11.962679 8.316865 -11.037022 -3.216034 0.000000 -0.000000 0.000000 -1.102473 -5.194899 12.913375 1.382799 -1.497583 -3.193149 0.690235 -3.823356 2.264211 1.859778 6.090296 -5.822295 -3.138527 -0.022079 10.845240 -26.554706 3.892619 -0.880534 -48.601104 -12.020813 7.431151 7.556357 -31.770833 5.104323 -0.908876 -1.381829 -0.808132 32.419972 -2.301200 -2.482316 53.161480 3.072376 14.536907 -12.164480 21.259916 -9.258169 6.126469 0.306474 -2.569300 
1.337390 0.252386 0.971061 95.572564 -0.665406 83.324720 -0.216923 5.215673 20.308028 -5.040855 -19.510891 5.841833 4.029662 4.438514 -16.198440 0.000000 -0.000000 0.000000 -0.291141 -3.240131 -18.819423 -0.217518 -6.518123 1.879633 9.933543 -9.146093 -3.995076 0.000000 -0.000000 0.000000 -1.313827 -5.185584 12.630309 1.255786 -2.085312 -3.277136 1.012220 -4.272553 2.018402 1.738637 6.458435 -6.173990 -2.700986 -0.417444 11.177410 -26.200508 3.523895 -1.125243 -48.489931 -13.116566 7.325084 8.147493 -32.765274 3.588958 0.534903 -1.944502 -0.972790 32.879849 -2.599708 -2.393052 52.918020 2.620722 14.097195 -12.044417 20.235394 -9.035353 5.582645 0.761652 -2.257388 
1.380595 0.250316 0.963964 96.428275 -0.700815 83.543997 0.690167 5.064367 22.016586 -5.368881 -21.550477 7.183656 2.897554 3.861502 -16.041215 0.000000 -0.000000 0.000000 -0.258262 -2.969905 -19.710308 0.095126 -7.270584 1.756441 11.463962 -7.480269 -6.034793 0.000000 -0.000000 0.000000 -1.491037 -5.677733 12.611469 1.351264 -2.134143 -3.269773 1.098100 -4.334151 1.858697 1.761673 6.817742 -6.591062 -2.619712 -1.060313 11.296213 -26.334137 3.504952 -1.765623 -48.351341 -14.242875 7.649853 8.354105 -33.151009 3.253561 1.145353 -2.072545 -0.194636 33.014712 -2.867412 -2.618382 53.070922 1.640834 13.827196 -12.243126 19.527798 -9.143875 5.516609 0.582833 -2.284722 
1.425397 0.247669 0.959831 96.434534 -0.393717 83.785662 1.355442 4.493585 23.096632 -6.003233 -22.412553 10.560499 2.265133 4.275985 -15.410555 0.000000 -0.000000 0.000000 -0.005758 -1.537462 -21.119087 0.541226 -6.653537 8.992747 9.654902 -8.571434 -3.164911 0.000000 -0.000000 0.000000 -1.194224 -6.294358 11.945377 1.602064 -1.672642 -2.967888 0.777654 -4.122454 1.811784 1.768073 6.438425 -6.488646 -2.613935 -0.714991 11.167075 -26.872319 3.128904 -1.506550 -47.947810 -14.673603 7.658875 8.842746 -33.773345 3.140605 0.969838 -2.042654 -0.664147 33.126586 -2.675075 -2.457102 53.114362 1.059621 13.832635 -11.914043 18.070678 -9.607585 5.643311 -0.111202 -3.357621 
1.475725 0.245921 0.959034 97.333702 -0.252764 83.728090 1.951804 4.317824 23.336889 -6.571067 -22.981293 15.703665 0.134424 3.286009 -11.653938 0.000000 -0.000000 0.000000 0.389779 -1.208936 -20.175041 -0.285224 -7.273184 11.897574 7.377487 -9.869107 4.141804 0.000000 -0.000000 0.000000 -0.711418 -7.138530 10.912714 1.579076 -1.552324 -2.553894 0.318209 -4.357447 1.624720 1.547482 5.609561 -6.295386 -2.458284 0.143022 11.680517 -27.891222 3.530759 -1.218179 -47.553095 -14.707331 7.344877 9.103185 -33.895017 2.925496 -0.411065 -2.190157 -0.880177 33.263296 -3.163457 -2.394041 52.893678 0.723003 13.882700 -11.213895 16.568415 -9.902539 6.123323 -0.248283 -3.545614 
